#N canvas 827 239 527 327 12;
#X obj -2509 7 mtof;
#X obj -2509 61 saw~;
#X obj -2645 81 vline~;
#X obj -2499 226 *~;
#X msg -2637 20 1 10 \, 0 1000 10;
#X obj -2499 153 vcf~;
#X obj -2340 50 *~;
#X obj -2358 12 vline~;
#X obj -2281 12 * 5500;
#X msg -2275 -29 1 10 \, 0 1000 10;
#X obj -2449 81 saw~;
#X obj -2447 46 * 1.001;
#X obj -2499 259 outlet~;
#X obj -2614 -183 inlet trigger;
#X obj -2499 -183 inlet midi_note;
#X connect 0 0 1 0;
#X connect 0 0 8 0;
#X connect 0 0 11 0;
#X connect 1 0 5 0;
#X connect 2 0 3 1;
#X connect 3 0 12 0;
#X connect 4 0 2 0;
#X connect 5 0 3 0;
#X connect 6 0 5 1;
#X connect 7 0 6 0;
#X connect 8 0 6 1;
#X connect 9 0 7 0;
#X connect 10 0 5 0;
#X connect 11 0 10 0;
#X connect 13 0 4 0;
#X connect 13 0 9 0;
#X connect 14 0 0 0;
