#N canvas 827 239 527 327 12;
#X obj -2499 -6 *~;
#X obj -2408 -41 hv.vline~;
#X obj -2537 -106 hv.pinknoise~;
#X obj -2394 -150 inlet;
#X obj -2506 50 outlet~;
#X obj -2490 -71 *~ 5000;
#X msg -2396 -85 1 \, 0 50;
#X obj -2524 -41 vcf~ 10;
#X obj -2498 24 *~ 5;
#X connect 0 0 8 0;
#X connect 1 0 0 1;
#X connect 1 0 5 0;
#X connect 2 0 7 0;
#X connect 3 0 6 0;
#X connect 5 0 7 1;
#X connect 6 0 1 0;
#X connect 7 0 0 0;
#X connect 8 0 4 0;
