#N canvas 827 239 527 327 12;
#X obj -2926 -259 phasor~;
#X obj -2926 -230 *~ 2;
#X obj -2925 -199 -~ 1;
#X obj -2839 -380 bng 25 250 50 0 empty empty empty 17 7 0 10 #191919 #e1e1e1 #e1e1e1;
#X obj -2704 -230 hv.vline~;
#X obj -2790 -167 *~;
#X obj -2926 -153 lop~;
#X obj -2880 -191 hv.vline~;
#X msg -2753 -273 1 3200 \, 0 10 3200;
#X msg -2871 -242 50 \, 600 3200;
#X obj -2790 -121 outlet~;
#X obj -2839 -419 inlet;
#X msg -2923 -402 0;
#X obj -2965 -375 lfo 0.01 -saw;
#X obj -2915 -338 * 1;
#X connect 0 0 1 0;
#X connect 1 0 2 0;
#X connect 2 0 6 0;
#X connect 3 0 9 0;
#X connect 3 0 8 0;
#X connect 3 0 12 0;
#X connect 4 0 5 1;
#X connect 5 0 10 0;
#X connect 6 0 5 0;
#X connect 7 0 6 1;
#X connect 8 0 4 0;
#X connect 9 0 7 0;
#X connect 11 0 3 0;
#X connect 12 0 13 1;
#X connect 13 0 14 0;
#X connect 14 0 0 0;
