#N canvas 827 239 527 327 12;
#X obj 311 138 phasor~ 350;
#X obj 423 138 phasor~ 800;
#X obj 311 167 expr~ ($v1*2)-1;
#X obj 423 167 expr~ ($v1*2)-1;
#X obj 311 196 +~;
#X obj 311 298 hip~ 8000;
#X obj 311 327 hip~ 8000;
#X obj 311 356 hip~ 8000;
#X obj 353 227 pink~;
#X obj 353 256 /~ 4;
#X obj 162 234 bng 25 250 50 0 empty empty empty 17 7 0 10 #e3dfd9 #5a5a5a #5a5a5a;
#X msg 162 268 1 \, 0 100;
#X obj 162 297 vline~;
#X obj 162 326 pow~ 4;
#X obj 162 355 *~;
#X obj 162 384 *~ 4;
#X obj 162 416 outlet~;
#X connect 0 0 2 0;
#X connect 1 0 3 0;
#X connect 2 0 4 0;
#X connect 3 0 4 1;
#X connect 4 0 5 0;
#X connect 5 0 6 0;
#X connect 6 0 7 0;
#X connect 7 0 14 1;
#X connect 8 0 9 0;
#X connect 9 0 5 0;
#X connect 10 0 11 0;
#X connect 11 0 12 0;
#X connect 12 0 13 0;
#X connect 13 0 14 0;
#X connect 14 0 15 0;
#X connect 15 0 16 0;
