#N canvas 827 239 527 327 12;
#X obj 162 234 bng 25 250 50 0 empty empty empty 17 7 0 10 #e3dfd9 #5a5a5a #5a5a5a;
#X obj 162 297 vline~;
#X obj 162 497 outlet~;
#X obj 162 326 sqrt~;
#X obj 162 355 *~ 20;
#X obj 162 384 -~ 0.25;
#X obj 162 411 cos~;
#X obj 162 460 lop~ 1000;
#X msg 162 268 0 \, 1 100;
#X connect 0 0 8 0;
#X connect 1 0 3 0;
#X connect 3 0 4 0;
#X connect 4 0 5 0;
#X connect 5 0 6 0;
#X connect 6 0 7 0;
#X connect 7 0 2 0;
#X connect 8 0 1 0;
