#N canvas 827 239 527 327 12;
#X msg 701 69 200;
#X obj 701 98 until;
#N canvas 0 0 450 250 (subpatch) 0;
#X array distribution 200 float 2;
#X coords 0 100 200 0 461 361 1;
#X restore 1 20 graph;
#X obj 701 127 t b b;
#X obj 701 233 +;
#X msg 508 64 200;
#X obj 508 93 until;
#X obj 12 426 t f f;
#X obj 12 456 tabread distribution;
#X obj 12 484 + 1;
#X obj 12 514 tabwrite distribution;
#X obj 508 122 random 200;
#X obj 12 399 receive value;
#X obj 701 295 send value;
#X obj 508 156 send value;
#X text 313 398 <-- clear array/table;
#X msg 179 384 \; distribution const 0;
#X text 474 33 linear distribution;
#X text 645 33 psuedo gaussian distribution;
#X obj 701 156 random 200;
#X obj 730 191 random 200;
#X obj 701 262 / 2;
#X connect 0 0 1 0;
#X connect 1 0 3 0;
#X connect 3 0 19 0;
#X connect 3 1 20 0;
#X connect 4 0 21 0;
#X connect 5 0 6 0;
#X connect 6 0 11 0;
#X connect 7 0 8 0;
#X connect 7 1 10 1;
#X connect 8 0 9 0;
#X connect 9 0 10 0;
#X connect 11 0 14 0;
#X connect 12 0 7 0;
#X connect 19 0 4 0;
#X connect 20 0 4 1;
#X connect 21 0 13 0;
