#N canvas 827 239 527 327 12;
#N canvas 0 0 450 250 (subpatch) 0;
#X array \$0-scale_notation 5 float 2;
#X coords 0 10 5 0 200 140 1;
#X restore 598 391 graph;
#X msg 636 579 resize 5;
#X obj 664 541 loadbang;
#X obj 680 637 s \$0-scale_notation;
#X msg 707 579 0 0 2 4 7 9;
#X obj 307 534 random 5;
#X obj 306 283 tgl 25 0 empty empty empty 17 7 0 10 #191919 #e1e1e1 #e1e1e1 0 1;
#X obj 368 368 i 0;
#X obj 412 368 + 1;
#X obj 373 474 pack s f;
#X msg 338 504 seed \$2;
#X obj 307 564 array get \$0-scale_notation;
#X obj 306 322 metro 200;
#X obj 368 397 mod 32;
#X obj 368 429 sel 31;
#X obj 469 411 random 100000;
#X obj 469 375 bng 25 250 50 0 empty empty empty 17 7 0 10 #191919 #e1e1e1 #e1e1e1;
#X obj 472 336 inlet (bang) trigger new sequence;
#X obj 289 229 inlet (float) 1 turns on metro\\\, 0 turns off;
#X obj 366 273 inlet (float) metro in ms;
#X obj 307 592 outlet (float) scale notation;
#X connect 1 0 3 0;
#X connect 2 0 1 0;
#X connect 2 0 4 0;
#X connect 4 0 3 0;
#X connect 5 0 11 0;
#X connect 6 0 12 0;
#X connect 7 0 8 0;
#X connect 7 0 13 0;
#X connect 8 0 7 1;
#X connect 9 0 10 0;
#X connect 10 0 5 0;
#X connect 11 0 20 0;
#X connect 12 0 5 0;
#X connect 12 0 7 0;
#X connect 13 0 14 0;
#X connect 14 0 9 0;
#X connect 15 0 9 1;
#X connect 16 0 15 0;
#X connect 17 0 16 0;
#X connect 18 0 6 0;
#X connect 19 0 12 1;
