#N canvas 827 239 527 327 12;
#X text 846 188 <-- clear array/table;
#N canvas 0 22 450 278 (subpatch) 0;
#X array seed_sequence 5 float 3;
#A 0 0 0 4 0 2;
#X coords 0 5 5 0 500 200 1;
#X restore 70 102 graph;
#X obj 583 507 tabwrite random_seed_sequence;
#X obj 581 364 until;
#X obj 581 398 t b b;
#X obj 702 456 i 0;
#X obj 741 456 + 1;
#X obj 581 435 random 5;
#X obj 702 412 r reset;
#X msg 636 388 seed \$1;
#X obj 581 247 t f b;
#X floatatom 632 335 5 0 0 0 empty - - 12;
#X obj 632 363 i;
#X obj 613 281 spigot;
#X obj 655 247 tgl 25 0 empty empty empty 17 7 0 10 #191919 #e1e1e1 #e1e1e1 0 1;
#X obj 602 88 bng 25 250 50 0 empty empty empty 17 7 0 10 #191919 #e1e1e1 #e1e1e1;
#X obj 599 131 t b b;
#N canvas 0 0 450 250 (subpatch) 0;
#X array other_seed_sequence 5 float 2;
#X coords 0 5 5 0 500 200 1;
#X restore 70 329 graph;
#X msg 803 441 set other_seed_sequence;
#X msg 802 412 set seed_sequence;
#X text 694 251 <- enable seed;
#X text 642 87 <- fill array with psuedo random integers;
#X msg 632 179 \; seed_sequence const 0 \; reset 0;
#X obj 567 591 print random numbers;
#X msg 581 209 5;
#X connect 3 0 4 0;
#X connect 4 0 7 0;
#X connect 4 1 5 0;
#X connect 5 0 6 0;
#X connect 5 0 2 1;
#X connect 6 0 5 1;
#X connect 7 0 2 0;
#X connect 7 0 23 0;
#X connect 8 0 5 0;
#X connect 9 0 7 0;
#X connect 10 0 3 0;
#X connect 10 1 13 0;
#X connect 11 0 12 0;
#X connect 12 0 9 0;
#X connect 13 0 11 0;
#X connect 14 0 13 1;
#X connect 15 0 16 0;
#X connect 16 0 24 0;
#X connect 16 1 22 0;
#X connect 18 0 2 0;
#X connect 19 0 2 0;
#X connect 24 0 10 0;
