#N canvas 827 239 527 327 12;
#N canvas 0 0 450 250 (subpatch) 0;
#X array \$0-scale_index 5 float 3;
#A 0 4 5 6 7 5;
#X coords 0 10 5 0 200 140 1;
#X restore 707 454 graph;
#N canvas 0 0 450 250 (subpatch) 0;
#X array \$0-scale_notation 5 float 3;
#A 0 0 2 4 7 9;
#X coords 0 10 5 0 200 140 1;
#X restore 698 616 graph;
#X obj 307 213 array get \$0-scale_notation;
#X obj 307 246 outlet (float) note from scale;
#X obj 307 148 inlet (bang) trigger random note from scale;
#X msg 707 169 5;
#X obj 707 198 until;
#X obj 707 227 i 0;
#X obj 743 227 + 1;
#X obj 707 256 mod 5;
#X obj 707 285 sel 4;
#X msg 753 343 0;
#X obj 753 372 s \$0-reset;
#X obj 743 198 r \$0-reset;
#X msg 736 804 resize 5;
#X obj 764 766 loadbang;
#X obj 780 862 s \$0-scale_notation;
#X obj 984 766 loadbang;
#X obj 1000 862 s \$0-scale_index;
#X msg 956 804 resize 5;
#X msg 807 804 0 0 2 4 7 9;
#X msg 1027 804 0 4 5 6 7 5;
#X obj 554 306 qlist;
#X obj 554 246 random 10;
#X msg 554 277 add2 \$1;
#X msg 658 343 clear;
#X msg 707 343 next;
#X listbox 554 343 20 0 0 0 - - - 0;
#X obj 658 314 t b b b, f 17;
#X obj 554 372 s \$0-scale_index;
#X obj 713 144 inlet (bang) trigger new;
#X obj 307 182 array random \$0-scale_index;
#X connect 2 0 3 0;
#X connect 4 0 31 0;
#X connect 5 0 6 0;
#X connect 6 0 7 0;
#X connect 6 0 23 0;
#X connect 7 0 8 0;
#X connect 7 0 9 0;
#X connect 8 0 7 1;
#X connect 9 0 10 0;
#X connect 10 0 28 0;
#X connect 11 0 12 0;
#X connect 13 0 7 1;
#X connect 14 0 16 0;
#X connect 15 0 14 0;
#X connect 15 0 20 0;
#X connect 17 0 19 0;
#X connect 17 0 21 0;
#X connect 19 0 18 0;
#X connect 20 0 16 0;
#X connect 21 0 18 0;
#X connect 22 0 27 0;
#X connect 23 0 24 0;
#X connect 24 0 22 0;
#X connect 25 0 22 0;
#X connect 26 0 22 0;
#X connect 27 0 29 0;
#X connect 28 0 25 0;
#X connect 28 1 26 0;
#X connect 28 2 11 0;
#X connect 31 0 2 0;
