#N canvas 547 63 538 623 12;
#X obj 95 969 output~;
#X obj 89 618 +~;
#X obj 89 550 +~;
#X obj 89 516 +~;
#X obj 89 587 +~;
#X obj 170 366 * 2;
#X obj 95 825 *~;
#X obj 207 785 vline~;
#X obj 89 435 osc~;
#X obj 170 435 osc~;
#X obj 249 435 osc~;
#X obj 327 435 osc~;
#X obj 409 435 osc~;
#X floatatom 170 399 9 0 0 0 - - - 16;
#X floatatom 249 399 9 0 0 0 - - - 16;
#X floatatom 328 399 10 0 0 0 - - - 16;
#X floatatom 409 399 10 0 0 0 - - - 16;
#X msg 341 716 0.8 1000 \, 0 1000 2000;
#X msg 279 716 0 1000;
#X msg 206 716 0.8 1000;
#X obj 524 727 spectrograph~;
#X obj 139 825 throw~ spectrograph;
#X obj 524 698 catch~ spectrograph;
#X obj 249 366 * 3;
#X obj 328 366 * 4;
#X obj 409 366 * 5;
#X obj 492 435 osc~;
#X obj 571 435 osc~;
#X obj 649 435 osc~;
#X obj 731 435 osc~;
#X floatatom 492 399 9 0 0 0 - - - 16;
#X floatatom 571 399 9 0 0 0 - - - 16;
#X floatatom 650 399 10 0 0 0 - - - 16;
#X floatatom 731 399 10 0 0 0 - - - 16;
#X obj 492 366 * 6;
#X obj 571 366 * 7;
#X obj 650 366 * 8;
#X obj 731 366 * 9;
#X obj 89 647 +~;
#X obj 89 676 +~;
#X obj 89 705 +~;
#X obj 89 734 +~;
#X obj 170 464 *~;
#X obj 249 464 *~;
#X obj 327 464 *~;
#X obj 409 464 *~;
#X obj 492 464 *~;
#X obj 571 464 *~;
#X obj 649 464 *~;
#X obj 731 464 *~;
#X obj 89 464 *~;
#X obj 170 114 random 100;
#X obj 170 143 / 100;
#X floatatom 170 172 5 0 0 0 - - - 12;
#X obj 265 114 random 100;
#X obj 265 143 / 100;
#X floatatom 265 175 5 0 0 0 - - - 12;
#X obj 368 114 random 100;
#X obj 368 143 / 100;
#X floatatom 368 172 5 0 0 0 - - - 12;
#X obj 472 114 random 100;
#X obj 472 143 / 100;
#X floatatom 472 175 5 0 0 0 - - - 12;
#X obj 578 114 random 100;
#X obj 578 143 / 100;
#X floatatom 578 172 5 0 0 0 - - - 12;
#X obj 670 114 random 100;
#X obj 670 143 / 100;
#X floatatom 670 172 5 0 0 0 - - - 12;
#X obj 769 114 random 100;
#X obj 769 143 / 100;
#X floatatom 769 172 5 0 0 0 - - - 12;
#X obj 867 114 random 100;
#X obj 867 143 / 100;
#X floatatom 867 172 5 0 0 0 - - - 12;
#X obj 1135 413 keyboard 16 80 4 2 0 0 empty empty;
#X obj 1059 504 mtof;
#X obj 1059 630 s frequency;
#X obj 87 311 r frequency;
#X obj 1060 413 gate;
#X obj 1060 380 tgl 25 0 empty empty empty 17 7 0 10 #191919 #ffffff #ffffff 0 1;
#X obj 1060 441 bng 25 250 50 0 empty empty empty 17 7 0 10 #191919 #ffffff #ffffff;
#X obj 1060 474 s random;
#X obj 185 52 r random;
#X obj 836 427 message;
#X msg 852 366 1;
#X obj 95 889 expr~ tanh($v1);
#X msg 170 211 \$1 100;
#X obj 170 240 line;
#X msg 265 220 \$1 100;
#X obj 265 249 line;
#X msg 368 234 \$1 100;
#X obj 368 263 line;
#X msg 472 234 \$1 100;
#X obj 472 263 line;
#X msg 550 226 \$1 100;
#X obj 550 255 line;
#X msg 646 234 \$1 100;
#X obj 646 263 line;
#X msg 768 220 \$1 100;
#X obj 768 249 line;
#X msg 867 234 \$1 100;
#X obj 867 263 line;
#X obj 1059 588 line;
#X msg 1059 550 \$1 2000;
#X connect 1 0 38 0;
#X connect 2 0 4 0;
#X connect 3 0 2 0;
#X connect 4 0 1 0;
#X connect 5 0 13 0;
#X connect 6 0 86 0;
#X connect 7 0 6 1;
#X connect 8 0 50 0;
#X connect 9 0 42 0;
#X connect 10 0 43 0;
#X connect 11 0 44 0;
#X connect 12 0 45 0;
#X connect 13 0 9 0;
#X connect 14 0 10 0;
#X connect 15 0 11 0;
#X connect 16 0 12 0;
#X connect 17 0 7 0;
#X connect 18 0 7 0;
#X connect 19 0 7 0;
#X connect 22 0 20 0;
#X connect 23 0 14 0;
#X connect 24 0 15 0;
#X connect 25 0 16 0;
#X connect 26 0 46 0;
#X connect 27 0 47 0;
#X connect 28 0 48 0;
#X connect 29 0 49 0;
#X connect 30 0 26 0;
#X connect 31 0 27 0;
#X connect 32 0 28 0;
#X connect 33 0 29 0;
#X connect 34 0 30 0;
#X connect 35 0 31 0;
#X connect 36 0 32 0;
#X connect 37 0 33 0;
#X connect 38 0 39 0;
#X connect 39 0 40 0;
#X connect 40 0 41 0;
#X connect 41 0 6 0;
#X connect 41 0 21 0;
#X connect 42 0 3 1;
#X connect 43 0 2 1;
#X connect 44 0 4 1;
#X connect 45 0 1 1;
#X connect 46 0 38 1;
#X connect 47 0 39 1;
#X connect 48 0 40 1;
#X connect 49 0 41 1;
#X connect 50 0 3 0;
#X connect 51 0 52 0;
#X connect 52 0 53 0;
#X connect 53 0 87 0;
#X connect 54 0 55 0;
#X connect 55 0 56 0;
#X connect 56 0 89 0;
#X connect 57 0 58 0;
#X connect 58 0 59 0;
#X connect 59 0 91 0;
#X connect 60 0 61 0;
#X connect 61 0 62 0;
#X connect 62 0 93 0;
#X connect 63 0 64 0;
#X connect 64 0 65 0;
#X connect 65 0 95 0;
#X connect 66 0 67 0;
#X connect 67 0 68 0;
#X connect 68 0 97 0;
#X connect 69 0 70 0;
#X connect 70 0 71 0;
#X connect 71 0 99 0;
#X connect 72 0 73 0;
#X connect 73 0 74 0;
#X connect 74 0 101 0;
#X connect 75 0 76 0;
#X connect 75 0 79 1;
#X connect 76 0 104 0;
#X connect 78 0 8 0;
#X connect 78 0 5 0;
#X connect 78 0 23 0;
#X connect 78 0 24 0;
#X connect 78 0 25 0;
#X connect 78 0 34 0;
#X connect 78 0 35 0;
#X connect 78 0 36 0;
#X connect 78 0 37 0;
#X connect 79 0 81 0;
#X connect 80 0 79 0;
#X connect 81 0 82 0;
#X connect 83 0 51 0;
#X connect 83 0 54 0;
#X connect 83 0 57 0;
#X connect 83 0 60 0;
#X connect 83 0 63 0;
#X connect 83 0 66 0;
#X connect 83 0 69 0;
#X connect 83 0 72 0;
#X connect 84 0 42 1;
#X connect 84 0 43 1;
#X connect 84 0 44 1;
#X connect 84 0 45 1;
#X connect 84 0 46 1;
#X connect 84 0 48 1;
#X connect 84 0 49 1;
#X connect 84 0 50 1;
#X connect 85 0 84 0;
#X connect 86 0 0 0;
#X connect 86 0 0 1;
#X connect 87 0 88 0;
#X connect 88 0 42 1;
#X connect 89 0 90 0;
#X connect 90 0 43 1;
#X connect 91 0 92 0;
#X connect 92 0 44 1;
#X connect 93 0 94 0;
#X connect 94 0 45 1;
#X connect 95 0 96 0;
#X connect 96 0 46 1;
#X connect 97 0 98 0;
#X connect 98 0 47 1;
#X connect 99 0 100 0;
#X connect 100 0 48 1;
#X connect 101 0 102 0;
#X connect 102 0 49 1;
#X connect 103 0 77 0;
#X connect 104 0 103 0;
