#N canvas 827 239 527 327 12;
#X obj 216 246 random 6;
#X obj 135 172 bng 25 250 50 0 empty empty empty 17 7 0 10 #e3dfd9 #5a5a5a #5a5a5a;
#X obj 172 246 + 1;
#X floatatom 216 282 5 0 0 0 empty - - 12;
#X obj 376 190 bng 25 250 50 0 empty empty empty 17 7 0 10 #e3dfd9 #5a5a5a #5a5a5a;
#X obj 363 228 text define -k \$0-sequence;
#A set 1 \; 5 \; 5 \; 4 \; 0 \;;
#X f 24;
#X obj 112 394 text set \$0-sequence;
#X obj 286 394 text get \$0-sequence;
#X obj 311 438 print;
#X obj 310 308 text delete \$0-sequence;
#X msg 314 274 -1;
#X floatatom 131 275 5 0 0 0 empty - - 12;
#X obj 131 246 i 0;
#X msg 91 245 0;
#X connect 0 0 3 0;
#X connect 1 0 0 0;
#X connect 1 0 12 0;
#X connect 2 0 12 1;
#X connect 3 0 6 0;
#X connect 4 0 5 0;
#X connect 7 0 8 0;
#X connect 10 0 9 0;
#X connect 11 0 6 1;
#X connect 12 0 2 0;
#X connect 12 0 11 0;
#X connect 13 0 12 0;
