#N canvas 827 239 527 327 12;
#N canvas 0 50 450 250 (subpatch) 0;
#X array points 18 float 1;
#A 0 -0.24 -0.5 -0.7 0.18 0.54 -0.9 0.56 0.78 -0.96 -0.16 0.36 0.68 -0.4 0.88 -0.46 0.58 -0.46 0.52;
#X coords 0 1 17 -1 200 140 1;
#X restore 729 218 graph;
#X floatatom 198 147 5 0 0 0 - - - 12;
#X obj 205 85 f 0;
#X obj 250 85 + 1;
#X obj 198 265 pack;
#X msg 198 294 \$1 \$2;
#X obj 209 670 dac~;
#X obj 205 56 metro 3;
#X obj 554 97 random 100;
#X obj 554 126 / 50;
#X obj 554 155 - 1;
#X floatatom 554 185 10 0 0 0 - - - 16;
#X obj 554 228 tabwrite points;
#X obj 370 156 expr 1000/$f1;
#X floatatom 370 128 11 20 2000 0 - - - 16;
#X floatatom 370 185 19 0 0 0 - - - 36;
#X obj 370 97 mtof;
#X obj 554 63 metro;
#X floatatom 651 35 8 0 0 0 - - - 16;
#N canvas 0 50 450 250 (subpatch) 0;
#X array filtered_signal 1000 float 0;
#X coords 0 1 999 -1 200 140 1;
#X restore 729 549 graph;
#X floatatom 279 410 9 0 0 0 - - - 16;
#X obj 205 439 lop~ 100;
#X obj 279 480 tabwrite~ filtered_signal;
#N canvas 0 50 450 250 (subpatch) 0;
#X array stochastic_signal 1000 float 0;
#X coords 0 1 999 -1 200 140 1;
#X restore 729 379 graph;
#X obj 288 357 tabwrite~ stochastic_signal;
#X obj 554 290 metro 100;
#X obj 554 319 s scope_metro;
#X obj 554 261 r toggle;
#X obj 306 328 r scope_metro;
#X obj 291 445 r scope_metro;
#X obj 554 35 r toggle;
#X obj 186 21 r toggle;
#X obj 769 35 tgl 25 0 empty empty empty 17 7 0 10 #191919 #ffffff #ffffff 0 1;
#X obj 769 68 s toggle;
#X obj 370 21 hsl 128 17 20 120 0 0 empty empty empty -2 -8 0 10 #191919 #ffffff #ffffff 0 1;
#X obj 370 45 i;
#X floatatom 370 74 5 0 0 0 - - - 12;
#X obj 370 240 s frequency;
#X obj 250 21 r frequency;
#X obj 215 211 r frequency;
#X obj 209 619 *~ 0.8;
#X obj 198 323 vline~;
#X obj 869 19 vsl 17 128 0.009 0.9 1 0 empty empty empty 0 -9 0 10 #191919 #ffffff #ffffff 0 1;
#X obj 861 159 s volume;
#X obj 258 569 r volume;
#X obj 198 117 mod 18;
#X obj 642 97 random 18;
#X obj 198 174 tabread4 points;
#X connect 1 0 47 0;
#X connect 2 0 3 0;
#X connect 2 0 45 0;
#X connect 3 0 2 1;
#X connect 4 0 5 0;
#X connect 5 0 41 0;
#X connect 7 0 2 0;
#X connect 8 0 9 0;
#X connect 9 0 10 0;
#X connect 10 0 11 0;
#X connect 11 0 12 0;
#X connect 13 0 15 0;
#X connect 14 0 13 0;
#X connect 15 0 37 0;
#X connect 16 0 14 0;
#X connect 17 0 8 0;
#X connect 17 0 46 0;
#X connect 18 0 17 1;
#X connect 20 0 21 1;
#X connect 21 0 22 0;
#X connect 21 0 40 0;
#X connect 25 0 26 0;
#X connect 27 0 25 0;
#X connect 28 0 24 0;
#X connect 29 0 22 0;
#X connect 30 0 17 0;
#X connect 31 0 7 0;
#X connect 32 0 33 0;
#X connect 34 0 35 0;
#X connect 35 0 36 0;
#X connect 36 0 16 0;
#X connect 38 0 7 1;
#X connect 39 0 4 1;
#X connect 40 0 6 0;
#X connect 40 0 6 1;
#X connect 41 0 24 0;
#X connect 41 0 21 0;
#X connect 42 0 43 0;
#X connect 44 0 40 1;
#X connect 45 0 1 0;
#X connect 46 0 12 1;
#X connect 47 0 4 0;
