#N canvas 827 239 527 327 12;
#X obj 168 -85 bng 38 250 50 0 empty empty empty 17 7 0 10 #191919 #e1e1e1 #e1e1e1;
#X obj 168 210 vline~;
#X obj 168 239 osc~;
#X obj 273 347 *~;
#X obj 300 210 vline~;
#X obj 372 268 noise~;
#X obj 433 201 vline~;
#X obj 389 327 *~;
#X obj 356 486 *~ 0.5;
#X obj 433 230 pow~ 3;
#X obj 300 239 pow~ 4;
#X obj 381 554 outlet~ (signal) snare;
#X obj 168 -114 inlet (bang) trigger snare;
#X msg 168 181 400 4 \, 200 2;
#X obj 500 -13 inlet (float) decay;
#X msg 367 143 1 4 \, 0 \$1 4;
#X msg 500 134 0.4 4 \, 0 \$1 4;
#X obj 363 117 f;
#X floatatom 500 20 5 0 0 0 - - - 12;
#X obj 526 84 f;
#X obj 451 117 * 0.5;
#X connect 0 0 13 0;
#X connect 0 0 16 0;
#X connect 0 0 17 0;
#X connect 0 0 19 0;
#X connect 0 0 20 0;
#X connect 1 0 2 0;
#X connect 2 0 3 0;
#X connect 3 0 8 0;
#X connect 4 0 10 0;
#X connect 5 0 7 0;
#X connect 6 0 9 0;
#X connect 7 0 8 0;
#X connect 8 0 11 0;
#X connect 9 0 7 1;
#X connect 10 0 3 1;
#X connect 12 0 0 0;
#X connect 13 0 1 0;
#X connect 14 0 18 0;
#X connect 15 0 4 0;
#X connect 16 0 6 0;
#X connect 17 0 15 0;
#X connect 18 0 19 1;
#X connect 18 0 20 0;
#X connect 19 0 16 0;
#X connect 20 0 17 1;
