#N canvas 827 239 527 327 12;
#X obj 90 414 phasor~;
#X obj 90 445 *~ 2;
#X obj 90 475 -~ 1;
#X obj 336 544 vcf~;
#X floatatom 868 633 5 0 0 0 - - - 12;
#X obj 942 575 loadbang;
#X floatatom 942 633 5 0 0 0 - - - 12;
#X msg 942 604 10;
#X obj 90 380 sig~;
#X obj 90 350 + 0;
#X obj 90 318 r freq;
#X obj 158 414 phasor~;
#X obj 158 445 *~ 2;
#X obj 158 475 -~ 1;
#X obj 158 380 sig~;
#X obj 158 350 + 0;
#X obj 158 318 r freq;
#X obj 186 290 * 1.1;
#X obj 186 259 r span;
#X obj 226 414 phasor~;
#X obj 226 445 *~ 2;
#X obj 226 475 -~ 1;
#X obj 226 380 sig~;
#X obj 226 350 + 0;
#X obj 226 318 r freq;
#X obj 254 259 r span;
#X obj 294 414 phasor~;
#X obj 294 445 *~ 2;
#X obj 294 475 -~ 1;
#X obj 294 380 sig~;
#X obj 294 350 + 0;
#X obj 294 318 r freq;
#X obj 322 259 r span;
#X obj 362 414 phasor~;
#X obj 362 445 *~ 2;
#X obj 362 475 -~ 1;
#X obj 362 380 sig~;
#X obj 362 350 + 0;
#X obj 362 318 r freq;
#X obj 390 259 r span;
#X obj 430 414 phasor~;
#X obj 430 445 *~ 2;
#X obj 430 475 -~ 1;
#X obj 430 380 sig~;
#X obj 430 350 + 0;
#X obj 430 318 r freq;
#X obj 458 259 r span;
#X obj 498 414 phasor~;
#X obj 498 445 *~ 2;
#X obj 498 475 -~ 1;
#X obj 498 380 sig~;
#X obj 498 350 + 0;
#X obj 498 318 r freq;
#X obj 526 259 r span;
#X obj 566 414 phasor~;
#X obj 566 445 *~ 2;
#X obj 566 475 -~ 1;
#X obj 566 380 sig~;
#X obj 566 350 + 0;
#X obj 566 318 r freq;
#X obj 594 259 r span;
#X obj 634 414 phasor~;
#X obj 634 445 *~ 2;
#X obj 634 475 -~ 1;
#X obj 634 380 sig~;
#X obj 634 350 + 0;
#X obj 634 318 r freq;
#X obj 662 259 r span;
#X obj 702 414 phasor~;
#X obj 702 445 *~ 2;
#X obj 702 475 -~ 1;
#X obj 702 380 sig~;
#X obj 702 350 + 0;
#X obj 702 318 r freq;
#X obj 730 259 r span;
#X obj 770 414 phasor~;
#X obj 770 445 *~ 2;
#X obj 770 475 -~ 1;
#X obj 770 380 sig~;
#X obj 770 350 + 0;
#X obj 770 318 r freq;
#X obj 798 259 r span;
#X obj 838 414 phasor~;
#X obj 838 445 *~ 2;
#X obj 838 475 -~ 1;
#X obj 838 380 sig~;
#X obj 838 350 + 0;
#X obj 838 318 r freq;
#X obj 866 259 r span;
#X obj 906 414 phasor~;
#X obj 906 445 *~ 2;
#X obj 906 475 -~ 1;
#X obj 906 380 sig~;
#X obj 906 350 + 0;
#X obj 906 318 r freq;
#X obj 934 259 r span;
#X obj 974 414 phasor~;
#X obj 974 445 *~ 2;
#X obj 974 475 -~ 1;
#X obj 974 380 sig~;
#X obj 974 350 + 0;
#X obj 974 318 r freq;
#X obj 1002 259 r span;
#X obj 1042 414 phasor~;
#X obj 1042 445 *~ 2;
#X obj 1042 475 -~ 1;
#X obj 1042 380 sig~;
#X obj 1042 350 + 0;
#X obj 1042 318 r freq;
#X obj 1070 259 r span;
#X obj 1110 414 phasor~;
#X obj 1110 445 *~ 2;
#X obj 1110 475 -~ 1;
#X obj 1110 380 sig~;
#X obj 1110 350 + 0;
#X obj 1110 318 r freq;
#X obj 1138 259 r span;
#X obj 254 290 * 1.2;
#X obj 322 290 * 1.3;
#X obj 390 290 * 1.4;
#X obj 458 290 * 1.5;
#X obj 526 290 * 1.25;
#X obj 594 290 * 1.26;
#X obj 662 290 * 1.27;
#X obj 730 290 * 1.28;
#X obj 798 290 * 1.29;
#X obj 866 290 * 1.3;
#X obj 934 290 * 1.5;
#X obj 1002 290 * 1.51;
#X obj 1070 290 * 1.52;
#X obj 1138 290 * 1.53;
#X obj 139 3 hsl 718 12 36 80 0 0 empty empty empty -2 -8 0 10 #191919 #ffffff #ffffff 0 1;
#X floatatom 132 178 5 0 0 0 - - - 12;
#X obj 132 205 s freq;
#X obj 243 106 hsl 466 17 0 100 0 0 empty empty empty -2 -8 0 10 #191919 #ffffff #ffffff 0 1;
#X obj 132 107 mtof;
#X floatatom 243 131 5 0 0 0 - - - 12;
#X obj 199 157 bng 25 250 50 0 empty empty empty 17 7 0 10 #191919 #ffffff #ffffff;
#X obj 243 158 s span;
#X obj 637 165 hsl 128 17 0 1000 0 0 empty empty empty -2 -8 0 10 #191919 #ffffff #ffffff 0 1;
#X obj 637 190 s filter_value;
#X obj 843 570 r filter_value;
#X obj 336 575 expr~ tanh($v1);
#X obj 145 542 *~ 0.5;
#X obj 240 75 inlet span;
#X obj 336 620 outlet~ signal;
#X obj 135 -38 inlet midi_note;
#X obj 642 137 inlet filter_cutoff;
#X connect 0 0 1 0;
#X connect 1 0 2 0;
#X connect 2 0 143 0;
#X connect 3 0 142 0;
#X connect 4 0 3 1;
#X connect 5 0 7 0;
#X connect 6 0 3 2;
#X connect 7 0 6 0;
#X connect 8 0 0 0;
#X connect 9 0 8 0;
#X connect 10 0 9 0;
#X connect 11 0 12 0;
#X connect 12 0 13 0;
#X connect 13 0 143 0;
#X connect 14 0 11 0;
#X connect 15 0 14 0;
#X connect 16 0 15 0;
#X connect 17 0 15 1;
#X connect 18 0 17 0;
#X connect 19 0 20 0;
#X connect 20 0 21 0;
#X connect 21 0 143 0;
#X connect 22 0 19 0;
#X connect 23 0 22 0;
#X connect 24 0 23 0;
#X connect 25 0 117 0;
#X connect 26 0 27 0;
#X connect 27 0 28 0;
#X connect 28 0 143 0;
#X connect 29 0 26 0;
#X connect 30 0 29 0;
#X connect 31 0 30 0;
#X connect 32 0 118 0;
#X connect 33 0 34 0;
#X connect 34 0 35 0;
#X connect 35 0 143 0;
#X connect 36 0 33 0;
#X connect 37 0 36 0;
#X connect 38 0 37 0;
#X connect 39 0 119 0;
#X connect 40 0 41 0;
#X connect 41 0 42 0;
#X connect 42 0 143 0;
#X connect 43 0 40 0;
#X connect 44 0 43 0;
#X connect 45 0 44 0;
#X connect 46 0 120 0;
#X connect 47 0 48 0;
#X connect 48 0 49 0;
#X connect 49 0 143 0;
#X connect 50 0 47 0;
#X connect 51 0 50 0;
#X connect 52 0 51 0;
#X connect 53 0 121 0;
#X connect 54 0 55 0;
#X connect 55 0 56 0;
#X connect 56 0 143 0;
#X connect 57 0 54 0;
#X connect 58 0 57 0;
#X connect 59 0 58 0;
#X connect 60 0 122 0;
#X connect 61 0 62 0;
#X connect 62 0 63 0;
#X connect 63 0 143 0;
#X connect 64 0 61 0;
#X connect 65 0 64 0;
#X connect 66 0 65 0;
#X connect 67 0 123 0;
#X connect 68 0 69 0;
#X connect 69 0 70 0;
#X connect 70 0 143 0;
#X connect 71 0 68 0;
#X connect 72 0 71 0;
#X connect 73 0 72 0;
#X connect 74 0 124 0;
#X connect 75 0 76 0;
#X connect 76 0 77 0;
#X connect 77 0 143 0;
#X connect 78 0 75 0;
#X connect 79 0 78 0;
#X connect 80 0 79 0;
#X connect 81 0 125 0;
#X connect 82 0 83 0;
#X connect 83 0 84 0;
#X connect 84 0 143 0;
#X connect 85 0 82 0;
#X connect 86 0 85 0;
#X connect 87 0 86 0;
#X connect 88 0 126 0;
#X connect 89 0 90 0;
#X connect 90 0 91 0;
#X connect 91 0 143 0;
#X connect 92 0 89 0;
#X connect 93 0 92 0;
#X connect 94 0 93 0;
#X connect 95 0 127 0;
#X connect 96 0 97 0;
#X connect 97 0 98 0;
#X connect 98 0 143 0;
#X connect 99 0 96 0;
#X connect 100 0 99 0;
#X connect 101 0 100 0;
#X connect 102 0 128 0;
#X connect 103 0 104 0;
#X connect 104 0 105 0;
#X connect 105 0 143 0;
#X connect 106 0 103 0;
#X connect 107 0 106 0;
#X connect 108 0 107 0;
#X connect 109 0 129 0;
#X connect 110 0 111 0;
#X connect 111 0 112 0;
#X connect 112 0 143 0;
#X connect 113 0 110 0;
#X connect 114 0 113 0;
#X connect 115 0 114 0;
#X connect 116 0 130 0;
#X connect 117 0 23 1;
#X connect 118 0 30 1;
#X connect 119 0 37 1;
#X connect 120 0 44 1;
#X connect 121 0 51 1;
#X connect 122 0 58 1;
#X connect 123 0 65 1;
#X connect 124 0 72 1;
#X connect 125 0 79 1;
#X connect 126 0 86 1;
#X connect 127 0 93 1;
#X connect 128 0 100 1;
#X connect 129 0 107 1;
#X connect 130 0 114 1;
#X connect 131 0 135 0;
#X connect 132 0 133 0;
#X connect 134 0 136 0;
#X connect 135 0 132 0;
#X connect 136 0 137 0;
#X connect 136 0 138 0;
#X connect 137 0 132 0;
#X connect 139 0 140 0;
#X connect 141 0 4 0;
#X connect 142 0 145 0;
#X connect 143 0 3 0;
#X connect 144 0 134 0;
#X connect 146 0 131 0;
#X connect 147 0 139 0;
